<svg width="159" height="268" viewBox="0 0 159 268" fill="none" xmlns="http://www.w3.org/2000/svg">
<path fill-rule="evenodd" clip-rule="evenodd" d="M47.0273 1.11249C39.7189 4.55387 39.3055 6.1905 39.1158 32.4033L38.9562 54.4777L37.0999 54.8307C20.9659 57.8982 6.23137 72.3215 1.18188 89.9893L0 94.1241V151.995C0 205.653 0.0661488 210.11 0.910573 213.208C3.91205 224.217 10.1176 233.827 18.3939 240.28L21.4465 242.661V246.748C21.4465 256.863 24.4459 262.841 31.377 266.542L34.1077 268H79.0678H124.028L126.565 266.691C133.37 263.179 136.265 258.001 136.596 248.751L136.817 242.594L139.207 240.813C147.673 234.508 154.523 223.944 157.455 212.671C158.789 207.54 159.617 110.285 158.426 98.5422C156.242 77.0109 141.611 59.6647 121.706 55.0083L119.16 54.4128L119.01 32.1085L118.86 9.80471L117.356 7.05307C115.764 4.14222 113.562 2.12537 110.608 0.874715C107.529 -0.429354 49.8427 -0.21358 47.0273 1.11249ZM107.468 9.86808C109.675 10.7265 109.816 12.1379 109.816 33.3461V53.5356H79.0508H48.2851L48.4314 32.8904L48.5776 12.2447L49.8303 10.8941L51.0835 9.54285H78.8575C94.1331 9.54285 107.008 9.68949 107.468 9.86808ZM61.9882 18.6593C55.194 21.6581 54.4219 39.1583 60.8931 43.5005L62.9695 44.8941L78.2312 45.0549C100.156 45.2854 101.538 44.4663 101.545 31.2244C101.549 23.863 100.25 20.7652 96.2767 18.6614C94.3099 17.6202 64.3462 17.6181 61.9882 18.6593ZM92.2458 31.5392V35.729H79.0678H65.8899V31.5392V27.3494H79.0678H92.2458V31.5392ZM81.4709 103.855C84.5804 105.542 84.3339 108.706 80.7934 112.554C78.3604 115.199 78.0668 115.984 78.2891 119.252C78.5816 123.545 82.5613 128.047 96.4235 139.764C135.122 172.472 121.554 213.369 73.2804 209.524C42.5824 207.078 29.438 179.573 48.1678 156.976C53.6711 150.337 59.7588 151.521 58.1268 158.913C57.2472 162.896 57.8849 164.041 60.9804 164.041C65.0336 164.041 65.4206 160.417 62.0367 154.142C54.2101 139.627 53.761 130.755 60.2042 117.956C65.0982 108.234 76.0979 100.941 81.4709 103.855ZM67.5751 121.775C62.6465 131.844 62.8879 139.689 68.3983 148.532C73.7031 157.044 73.9874 164.745 69.1673 169.381C64.815 173.568 56.4312 173.419 52.4928 169.086C47.466 163.555 46.6397 183.792 51.5946 191.078C61.7494 206.012 100.192 204.523 107.904 188.897C115.067 174.384 109.044 161.089 86.7214 142.141C74.8943 132.101 70.0241 125.737 70.0241 120.322C70.0241 117.999 69.1777 118.501 67.5751 121.775ZM79.0678 250.193H118.86L123.124 248.832L127.387 247.47V249.637C127.387 252.285 125.582 256.032 123.603 257.495C121.529 259.028 38.7076 259.481 35.5795 257.976C33.0571 256.763 31.2675 253.825 30.9093 250.309L30.6163 247.431L34.9459 248.812L39.2755 250.193H79.0678Z" fill="#3366FF"/>
</svg>
